<svg
  xmlns="http://www.w3.org/2000/svg"
  width="100"
  height="100"
  viewBox="0 0 100 100"
  fill="currentColor"
>
  <path d="M46.166 85.21c-20.23 0-36.744-16.514-36.744-36.744 0-20.23 16.514-36.743 36.744-36.743 20.23 0 36.744 16.513 36.744 36.743 0 20.23-16.514 36.744-36.744 36.744zm0-68.27c-17.59 0-31.527 13.938-31.527 31.527 0 17.59 13.938 31.527 31.527 31.527 17.59 0 31.527-13.938 31.527-31.527 0-17.59-13.938-31.527-31.527-31.527z" />
  <path d="M91.294 87.487a1.95 1.95 0 0 1-1.413-.61l-14.29-14.29a1.975 1.975 0 1 1 2.805-2.805l14.29 14.29a1.975 1.975 0 0 1-1.412 3.415z" />
</svg>